<svg width="23" height="33" viewBox="0 0 23 33" fill="none" xmlns="http://www.w3.org/2000/svg">
<path d="M11.7909 38.7597C10.2471 38.7597 8.76653 38.1464 7.67489 37.0548C6.58325 35.9632 5.96997 34.4826 5.96997 32.9388V20.5449H17.6186V32.9388C17.6186 33.7038 17.4678 34.4612 17.1748 35.1679C16.8819 35.8746 16.4525 36.5166 15.9113 37.0572C15.3701 37.5978 14.7276 38.0264 14.0206 38.3186C13.3136 38.6107 12.5559 38.7606 11.7909 38.7597Z" fill="#CC8070"/>
<path d="M5.97583 24.486C5.97583 24.486 9.17836 30.4345 12.8374 30.1458C18.4972 29.696 17.5372 22.6799 17.5372 22.6799C17.5372 22.6799 15.3417 27.3797 11.8706 27.3797C10.7344 27.3678 9.61524 27.1017 8.59522 26.601C7.5752 26.1003 6.68019 25.3776 5.97583 24.486Z" fill="#B76456"/>
<path d="M3.10878 16.2549L2.53138 10.3668C1.78614 6.60035 4.72011 4.61304 7.29154 4.61304H16.1807C18.9066 4.61304 22.1494 6.58692 20.773 10.8301L19.9741 17.2419L3.10878 16.2549Z" fill="#070924"/>
<path d="M19.3776 19.4773C21.1366 20.7798 24.1847 14.8581 22.466 13.4348C20.7472 12.0114 19.6126 14.603 19.6126 14.603L19.5723 16.7783L19.3239 18.7925L19.2231 19.4168L19.3776 19.4773Z" fill="#CC8070"/>
<path d="M21.9954 15.2404C21.9954 15.2404 20.713 14.8175 19.8066 16.6974" stroke="#070924" stroke-width="0.52" stroke-linecap="round" stroke-linejoin="round"/>
<path d="M20.4316 15.7981C20.4316 15.7981 21.8214 16.5433 20.9016 17.6578" stroke="#070924" stroke-width="0.52" stroke-linecap="round" stroke-linejoin="round"/>
<path d="M3.98201 19.4773C2.21626 20.7798 -0.831854 14.8581 0.886904 13.4348C2.60566 12.0115 3.67989 14.6567 3.67989 14.6567L3.78059 16.8052L4.03572 18.8193L4.12972 19.4437L3.98201 19.4773Z" fill="#CC8070"/>
<path d="M1.3645 15.2404C1.3645 15.2404 2.64014 14.8175 3.54652 16.6974" stroke="#070924" stroke-width="0.52" stroke-linecap="round" stroke-linejoin="round"/>
<path d="M2.92821 15.7981C2.92821 15.7981 1.53172 16.5433 2.45152 17.6578" stroke="#070924" stroke-width="0.52" stroke-linecap="round" stroke-linejoin="round"/>
<path d="M19.9543 11.8373C19.9495 14.8888 19.6232 17.9313 18.9808 20.9145C18.4994 23.1242 17.1651 25.0545 15.268 26.2856L14.9189 26.5138C13.9349 27.1529 12.7895 27.4991 11.6163 27.5122C10.4431 27.5253 9.29028 27.2047 8.29228 26.5877C7.27631 25.9648 6.40159 25.1367 5.72411 24.1563C5.04662 23.1759 4.5813 22.0649 4.35793 20.8943C3.84291 17.9007 3.54449 14.8738 3.46498 11.8373C3.46498 11.8373 2.6996 2.58551 11.5955 2.76679C20.4914 2.94806 19.9543 11.8373 19.9543 11.8373Z" fill="#CC8070"/>
<path d="M20.0756 1.34985C17.249 -0.664316 11.6698 0.752316 8.62165 2.14881C8.68879 1.23572 8.13154 1.33642 8.13154 1.33642C2.76042 2.7732 4.18376 6.98953 4.18376 6.98953H4.23076C3.67351 8.20474 2.94841 10.7896 3.63322 15.4692C3.63322 15.4692 5.05657 10.4069 5.09014 7.4125C7.46686 8.45987 13.9726 11.0044 18.2158 9.58109C18.5946 11.5844 19.106 13.5604 19.7466 15.496C20.1226 13.2907 20.109 11.0365 19.7063 8.83585C19.9713 8.65375 20.2166 8.44449 20.4381 8.21145C20.4381 8.21145 24.077 4.18312 20.0756 1.34985Z" fill="#070924"/>
<path d="M10.9304 15.3816V18.3693C10.9314 18.4679 10.9495 18.5656 10.9841 18.658C11.0603 18.8228 11.1927 18.9552 11.3575 19.0314C11.5223 19.1077 11.7088 19.1229 11.8838 19.0742L12.6626 18.8661" stroke="#070924" stroke-width="0.52" stroke-linecap="round" stroke-linejoin="round"/>
<path d="M7.97034 15.3215C8.39676 15.3215 8.74244 14.9759 8.74244 14.5494C8.74244 14.123 8.39676 13.7773 7.97034 13.7773C7.54392 13.7773 7.19824 14.123 7.19824 14.5494C7.19824 14.9759 7.54392 15.3215 7.97034 15.3215Z" fill="#070924"/>
<path d="M15.1205 15.3215C15.5469 15.3215 15.8926 14.9759 15.8926 14.5494C15.8926 14.123 15.5469 13.7773 15.1205 13.7773C14.6941 13.7773 14.3484 14.123 14.3484 14.5494C14.3484 14.9759 14.6941 15.3215 15.1205 15.3215Z" fill="#070924"/>
<path d="M9.37379 15.3955L7.45361 16.6644" stroke="#070924" stroke-width="0.39" stroke-linecap="round" stroke-linejoin="round"/>
<path d="M13.906 15.3889L15.6046 16.6713" stroke="#070924" stroke-width="0.39" stroke-linecap="round" stroke-linejoin="round"/>
<path d="M9.44092 20.5449C10.0894 20.9044 10.8308 21.0611 11.5692 20.9948C12.3516 21.0124 13.1284 20.8589 13.8452 20.5449" stroke="#070924" stroke-width="0.52" stroke-linecap="round" stroke-linejoin="round"/>
<path d="M11.6294 24.7075V25.5468" stroke="#070924" stroke-width="0.39" stroke-linecap="round" stroke-linejoin="round"/>
<path d="M9.93081 12.7831V11.2725L7.13783 11.3262C6.78694 11.3337 6.44879 11.4591 6.17774 11.682L5.07666 12.9644L6.92298 12.6891L9.93081 12.7831Z" fill="#070924"/>
<path d="M13.2006 12.7831L13.167 11.2725L15.96 11.3262C16.3111 11.3327 16.6495 11.4581 16.9201 11.682L18.0346 12.9644L16.1815 12.6891L13.2006 12.7831Z" fill="#070924"/>
<path opacity="0.19" d="M19.1756 15.3416C19.1756 16.0055 18.9787 16.6545 18.6098 17.2066C18.241 17.7586 17.7167 18.1889 17.1033 18.443C16.4899 18.6971 15.8149 18.7635 15.1637 18.634C14.5125 18.5045 13.9144 18.1848 13.4449 17.7153C12.9754 17.2458 12.6557 16.6477 12.5262 15.9965C12.3966 15.3453 12.4631 14.6703 12.7172 14.0569C12.9713 13.4435 13.4016 12.9192 13.9536 12.5504C14.5056 12.1815 15.1547 11.9846 15.8186 11.9846C16.7089 11.9846 17.5628 12.3383 18.1923 12.9678C18.8219 13.5974 19.1756 14.4512 19.1756 15.3416Z" fill="#FFF8E8"/>
<path opacity="0.19" d="M10.9451 15.3416C10.9451 16.0055 10.7482 16.6545 10.3794 17.2066C10.0105 17.7586 9.4862 18.1889 8.8728 18.443C8.2594 18.6971 7.58443 18.7635 6.93324 18.634C6.28206 18.5045 5.68391 18.1848 5.21443 17.7153C4.74495 17.2458 4.42523 16.6477 4.29571 15.9965C4.16618 15.3453 4.23266 14.6703 4.48674 14.0569C4.74081 13.4435 5.17108 12.9192 5.72313 12.5504C6.27518 12.1815 6.92421 11.9846 7.58815 11.9846C8.47847 11.9846 9.33232 12.3383 9.96187 12.9678C10.5914 13.5974 10.9451 14.4512 10.9451 15.3416Z" fill="#FFF8E8"/>
<path d="M10.9451 15.3416C10.9451 16.0055 10.7482 16.6545 10.3794 17.2066C10.0105 17.7586 9.4862 18.1889 8.8728 18.443C8.2594 18.6971 7.58443 18.7635 6.93324 18.634C6.28206 18.5045 5.68391 18.1848 5.21443 17.7153C4.74495 17.2458 4.42523 16.6477 4.29571 15.9965C4.16618 15.3453 4.23266 14.6703 4.48674 14.0569C4.74081 13.4435 5.17108 12.9192 5.72313 12.5504C6.27518 12.1815 6.92421 11.9846 7.58815 11.9846C8.47847 11.9846 9.33232 12.3383 9.96187 12.9678C10.5914 13.5974 10.9451 14.4512 10.9451 15.3416Z" stroke="#1A1A1A" stroke-width="0.33" stroke-linecap="round" stroke-linejoin="round"/>
<path d="M19.1756 15.3416C19.1756 16.0055 18.9787 16.6545 18.6098 17.2066C18.241 17.7586 17.7167 18.1889 17.1033 18.443C16.4899 18.6971 15.8149 18.7635 15.1637 18.634C14.5125 18.5045 13.9144 18.1848 13.4449 17.7153C12.9754 17.2458 12.6557 16.6477 12.5262 15.9965C12.3966 15.3453 12.4631 14.6703 12.7172 14.0569C12.9713 13.4435 13.4016 12.9192 13.9536 12.5504C14.5056 12.1815 15.1547 11.9846 15.8186 11.9846C16.7089 11.9846 17.5628 12.3383 18.1923 12.9678C18.8219 13.5974 19.1756 14.4512 19.1756 15.3416V15.3416Z" stroke="#1A1A1A" stroke-width="0.33" stroke-linecap="round" stroke-linejoin="round"/>
<path d="M10.9451 15.3416C11.1484 15.1419 11.4221 15.03 11.7071 15.03C11.9921 15.03 12.2658 15.1419 12.4691 15.3416" stroke="#1A1A1A" stroke-width="0.33" stroke-linecap="round" stroke-linejoin="round"/>
<path d="M4.26404 15.3418H3.70679" stroke="#1A1A1A" stroke-width="0.33" stroke-miterlimit="10"/>
<path d="M19.8068 15.3418H19.2495" stroke="#1A1A1A" stroke-width="0.33" stroke-miterlimit="10"/>
</svg>
